<?xml version="1.0" encoding="UTF-8" standalone="no"?>
<svg
   xmlns:dc="http://purl.org/dc/elements/1.1/"
   xmlns:cc="http://creativecommons.org/ns#"
   xmlns:rdf="http://www.w3.org/1999/02/22-rdf-syntax-ns#"
   xmlns:svg="http://www.w3.org/2000/svg"
   xmlns="http://www.w3.org/2000/svg"
   xmlns:sodipodi="http://sodipodi.sourceforge.net/DTD/sodipodi-0.dtd"
   xmlns:inkscape="http://www.inkscape.org/namespaces/inkscape"
   version="1.1"
   id="svg833"
   xml:space="preserve"
   width="146.66667"
   height="146.66667"
   viewBox="0 0 146.66667 146.66667"
   sodipodi:docname="drawing.svg"
   inkscape:export-filename="/home/mitesh/bitmap.png"
   inkscape:export-xdpi="597.64722"
   inkscape:export-ydpi="597.64722"
   inkscape:version="1.0.1 (3bc2e813f5, 2020-09-07)"><metadata
     id="metadata839"><rdf:RDF><cc:Work
         rdf:about=""><dc:format>image/svg+xml</dc:format><dc:type
           rdf:resource="http://purl.org/dc/dcmitype/StillImage" /><dc:title /></cc:Work></rdf:RDF></metadata><defs
     id="defs837" /><sodipodi:namedview
     pagecolor="#ffffff"
     bordercolor="#666666"
     borderopacity="1"
     objecttolerance="10"
     gridtolerance="10"
     guidetolerance="10"
     inkscape:pageopacity="0"
     inkscape:pageshadow="2"
     inkscape:window-width="1600"
     inkscape:window-height="870"
     id="namedview835"
     showgrid="true"
     inkscape:zoom="5.12"
     inkscape:cx="54.526736"
     inkscape:cy="77.558"
     inkscape:window-x="0"
     inkscape:window-y="0"
     inkscape:window-maximized="1"
     inkscape:current-layer="g843"
     inkscape:document-rotation="0"><inkscape:grid
       type="xygrid"
       id="grid848" /></sodipodi:namedview><g
     id="g841"
     inkscape:groupmode="layer"
     inkscape:label="ink_ext_XXXXXX"
     transform="matrix(1.3333333,0,0,-1.3333333,0,146.66667)"><g
       id="g843"
       transform="scale(0.1)"><path
         id="path845"
         style="fill:#ffffff;fill-opacity:1;fill-rule:evenodd;stroke:none;stroke-width:0.999995"
         d="m 14.29687,1088.545 c 0,-359.99998 0,-719.99998 0,-1079.9999775 360,0 720.00001,0 1080.00003,0 0,359.9999975 0,719.9999975 0,1079.9999775 -360.00002,0 -720.00003,0 -1080.00003,0 z"
         inkscape:export-filename="/home/mitesh/path845.png"
         inkscape:export-xdpi="96"
         inkscape:export-ydpi="96" /><path
         d="m 14.3008,8.55078 h 1080 V 1088.5508 h -1080 z"
         style="fill:none;stroke:#d9dadb;stroke-width:4.25175;stroke-linecap:butt;stroke-linejoin:miter;stroke-miterlimit:4;stroke-dasharray:none;stroke-opacity:1"
         id="path847"
         inkscape:export-filename="/home/mitesh/path845.png"
         inkscape:export-xdpi="96"
         inkscape:export-ydpi="96" /><g
         id="g849"
         transform="matrix(10.764258,0,0,10.764258,-51.004124,-1.4843626)"
         inkscape:export-filename="/home/mitesh/path845.png"
         inkscape:export-xdpi="96"
         inkscape:export-ydpi="96"><g
           aria-label="provide value
"
           transform="scale(1,-1)"
           id="text853"
           style="font-variant:normal;font-weight:normal;font-size:8.05342px;font-family:'DejaVu Sans';-inkscape-font-specification:DejaVuSans;writing-mode:lr-tb;fill:#003865;fill-opacity:1;fill-rule:nonzero;stroke:none"><path
             d="m 33.275233,-33.87962 q 0,-0.114038 -0.05505,-0.196617 -0.05112,-0.08651 -0.176955,-0.08651 -0.06685,0 -0.114038,0.02359 -0.04719,0.02359 -0.102241,0.06685 l -0.08258,-0.09831 q 0.09044,-0.07471 0.200549,-0.145496 0.114038,-0.07472 0.243805,-0.129767 0.129767,-0.05505 0.279196,-0.09044 0.149428,-0.03539 0.314586,-0.03539 0.176955,0 0.30279,0.05505 0.125835,0.05505 0.208414,0.133699 0.08651,0.07471 0.129767,0.161226 0.04326,0.08258 0.05112,0.141564 0.07865,-0.110106 0.18482,-0.200549 0.110105,-0.09044 0.23594,-0.153361 0.129767,-0.06685 0.271331,-0.102241 0.145496,-0.03539 0.298857,-0.03539 0.314587,0 0.570189,0.129767 0.255602,0.129767 0.436489,0.385369 0.18482,0.255601 0.283128,0.633106 0.09831,0.377504 0.09831,0.872978 0,0.57412 -0.121902,0.979151 -0.11797,0.401098 -0.314587,0.6567 -0.192684,0.255601 -0.444354,0.373571 -0.247737,0.114038 -0.507271,0.114038 -0.216278,0 -0.381436,-0.04326 -0.161226,-0.04326 -0.279196,-0.106173 -0.11797,-0.06292 -0.196616,-0.125834 -0.07865,-0.06685 -0.125835,-0.110106 v 1.918979 q 0,0.05112 -0.01573,0.121903 -0.01573,0.07078 -0.07865,0.133699 -0.05898,0.06685 -0.180887,0.114038 -0.11797,0.04719 -0.326384,0.04719 -0.208414,0 -0.330316,-0.05112 -0.11797,-0.04719 -0.180888,-0.11797 -0.06292,-0.06685 -0.07865,-0.137631 -0.01573,-0.06685 -0.01573,-0.110106 z m 1.207227,2.504897 q 0,0.03146 0.02753,0.110105 0.02753,0.07865 0.08651,0.161226 0.05898,0.08258 0.149428,0.149428 0.09438,0.06292 0.228076,0.06292 0.173022,0 0.294925,-0.129767 0.121902,-0.1337 0.200549,-0.357843 0.07865,-0.228075 0.114037,-0.526933 0.03539,-0.302789 0.03539,-0.644902 0,-0.42076 -0.04719,-0.711753 -0.04326,-0.290992 -0.129767,-0.467948 -0.08651,-0.180887 -0.208413,-0.259534 -0.11797,-0.08258 -0.267399,-0.08258 -0.08651,0 -0.173023,0.05112 -0.08651,0.04719 -0.157293,0.121902 -0.06685,0.07078 -0.110105,0.161226 -0.04326,0.09044 -0.04326,0.173023 z"
             style="font-style:normal;font-variant:normal;font-weight:normal;font-stretch:normal;font-family:'Berkshire Swash';-inkscape-font-specification:'Berkshire Swash'"
             id="path850" /><path
             d="m 38.855215,-33.741989 q 0.149429,-0.228075 0.318519,-0.412895 0.07078,-0.07865 0.153362,-0.153361 0.08258,-0.07471 0.16909,-0.133699 0.09044,-0.05898 0.18482,-0.09438 0.09438,-0.03539 0.188752,-0.03539 0.200549,0 0.314586,0.121902 0.114038,0.11797 0.114038,0.334249 0,0.133699 -0.02359,0.259534 -0.01966,0.121902 -0.08258,0.298857 h -0.110105 q -0.02359,-0.121902 -0.110106,-0.200549 -0.08651,-0.08258 -0.251669,-0.08258 -0.121902,0 -0.239872,0.04719 -0.11797,0.04326 -0.232008,0.110106 -0.110106,0.06685 -0.212346,0.145496 -0.09831,0.07865 -0.180888,0.149429 v 2.552084 q 0,0.05112 -0.01573,0.121903 -0.01573,0.07078 -0.07865,0.133699 -0.05898,0.06292 -0.180887,0.106173 -0.11797,0.04719 -0.326384,0.04719 -0.208413,0 -0.330316,-0.05112 -0.11797,-0.04719 -0.180887,-0.114038 -0.06292,-0.06685 -0.07865,-0.137632 -0.01573,-0.07078 -0.01573,-0.114037 v -3.035762 q 0,-0.114038 -0.05505,-0.196617 -0.05112,-0.08651 -0.176955,-0.08651 -0.06685,0 -0.114038,0.02359 -0.04719,0.02359 -0.10224,0.06685 l -0.08258,-0.09831 q 0.09044,-0.07471 0.200549,-0.145496 0.114038,-0.07472 0.243805,-0.129767 0.129767,-0.05505 0.279195,-0.09044 0.149429,-0.03539 0.314587,-0.03539 0.16909,0 0.28706,0.04719 0.121903,0.04326 0.196617,0.11797 0.07865,0.07078 0.121902,0.161226 0.04326,0.09044 0.06292,0.184819 0.02359,0.09044 0.02753,0.176955 0.0039,0.08258 0.0039,0.141564 z"
             style="font-style:normal;font-variant:normal;font-weight:normal;font-stretch:normal;font-family:'Berkshire Swash';-inkscape-font-specification:'Berkshire Swash'"
             id="path852" /><path
             d="m 40.467472,-32.503303 q 0,-0.515136 0.149429,-0.900505 0.149429,-0.389301 0.397166,-0.648835 0.251669,-0.259534 0.581985,-0.389301 0.330316,-0.129767 0.692091,-0.129767 0.361775,0 0.692091,0.121902 0.330316,0.11797 0.578053,0.365707 0.251669,0.247737 0.401098,0.629174 0.149429,0.377504 0.149429,0.896572 0,0.515136 -0.149429,0.912302 -0.149429,0.397165 -0.401098,0.668496 -0.247737,0.271331 -0.578053,0.412895 -0.330316,0.137632 -0.692091,0.137632 -0.361775,0 -0.692091,-0.129767 -0.330316,-0.133699 -0.581985,-0.393233 -0.247737,-0.259534 -0.397166,-0.648835 -0.149429,-0.389302 -0.149429,-0.904437 z m 2.418386,-0.03932 q 0,-0.314586 -0.02359,-0.605579 -0.01966,-0.294925 -0.08258,-0.523 -0.06292,-0.228076 -0.180887,-0.361775 -0.117971,-0.137632 -0.310655,-0.137632 -0.192684,0 -0.310654,0.145496 -0.11797,0.141564 -0.180888,0.377505 -0.06292,0.232007 -0.08258,0.530865 -0.01966,0.298857 -0.01966,0.613444 0,0.314586 0.01966,0.617376 0.01966,0.298858 0.08258,0.534798 0.06292,0.23594 0.180888,0.381436 0.11797,0.141564 0.310654,0.141564 0.192684,0 0.310655,-0.149429 0.11797,-0.149428 0.180887,-0.393233 0.06292,-0.243805 0.08258,-0.550527 0.02359,-0.306722 0.02359,-0.621309 z"
             style="font-style:normal;font-variant:normal;font-weight:normal;font-stretch:normal;font-family:'Berkshire Swash';-inkscape-font-specification:'Berkshire Swash'"
             id="path854" /><path
             d="m 44.737988,-33.832432 q -0.02359,-0.157294 -0.07865,-0.243805 -0.05112,-0.08651 -0.176955,-0.08651 -0.06685,0 -0.11797,0.02359 -0.04719,0.02359 -0.102241,0.06685 l -0.07865,-0.09831 q 0.09044,-0.07471 0.200549,-0.145496 0.114038,-0.07472 0.243805,-0.129767 0.129767,-0.05505 0.279195,-0.09044 0.149429,-0.03539 0.314587,-0.03539 0.23594,0 0.381436,0.08258 0.145497,0.07865 0.228076,0.200549 0.08651,0.11797 0.121902,0.255602 0.03539,0.137631 0.05112,0.247737 0.145497,1.191497 0.326384,1.804941 0.180888,0.613444 0.428625,0.613444 0.137631,0 0.263466,-0.149428 0.129767,-0.149429 0.224143,-0.408963 0.09831,-0.259534 0.157293,-0.60558 0.05898,-0.346045 0.05898,-0.739278 0,-0.259534 -0.03539,-0.436489 -0.03539,-0.180888 -0.07865,-0.30279 -0.04326,-0.121903 -0.07865,-0.200549 -0.03539,-0.08258 -0.03539,-0.145497 0,-0.05898 0.04719,-0.09831 0.04719,-0.03932 0.110105,-0.06685 0.06685,-0.02753 0.1337,-0.03932 0.07078,-0.0118 0.114037,-0.0118 0.114038,0 0.165158,0.03146 0.05112,0.03146 0.08258,0.121902 0.03539,0.114038 0.04719,0.30279 0.01573,0.184819 0.01573,0.397165 0,0.30279 -0.04326,0.664565 -0.03932,0.361775 -0.125835,0.727482 -0.08258,0.365707 -0.212346,0.70782 -0.129767,0.342113 -0.310654,0.609512 -0.176955,0.263466 -0.40503,0.424692 -0.224143,0.157293 -0.503339,0.157293 -0.326384,0 -0.566256,-0.188752 -0.239873,-0.188752 -0.408963,-0.491542 -0.165158,-0.302789 -0.275263,-0.680293 -0.110106,-0.377505 -0.180888,-0.755009 -0.06685,-0.381436 -0.110105,-0.719617 -0.03932,-0.342113 -0.07078,-0.570188 z"
             style="font-style:normal;font-variant:normal;font-weight:normal;font-stretch:normal;font-family:'Berkshire Swash';-inkscape-font-specification:'Berkshire Swash'"
             id="path856" /><path
             d="m 49.940466,-30.843858 q 0,0.05112 -0.01966,0.125834 -0.01573,0.07078 -0.08258,0.137632 -0.06292,0.06292 -0.18482,0.106173 -0.121902,0.04719 -0.330316,0.04719 -0.208413,0 -0.326383,-0.05112 -0.11797,-0.04719 -0.176955,-0.114038 -0.05898,-0.06685 -0.07471,-0.137632 -0.0118,-0.07078 -0.0118,-0.114037 v -3.035762 q 0,-0.114038 -0.05505,-0.196617 -0.05112,-0.08651 -0.176955,-0.08651 -0.06685,0 -0.114038,0.02359 -0.04719,0.02359 -0.102241,0.06685 l -0.08258,-0.09831 q 0.09044,-0.07471 0.200549,-0.145496 0.114038,-0.07472 0.243805,-0.129767 0.129767,-0.05505 0.279196,-0.09044 0.149428,-0.03539 0.314586,-0.03539 0.255602,0 0.397166,0.07078 0.141564,0.06685 0.208414,0.16909 0.06685,0.09831 0.07865,0.212346 0.01573,0.114038 0.01573,0.200549 z m -1.329129,-4.624425 q 0,-0.110105 0.04719,-0.208414 0.05112,-0.102241 0.137632,-0.176955 0.09044,-0.07471 0.204481,-0.11797 0.11797,-0.04326 0.255602,-0.04326 0.133699,0 0.247737,0.04326 0.11797,0.04326 0.204481,0.11797 0.08651,0.07471 0.133699,0.176955 0.05112,0.09831 0.05112,0.208414 0,0.114038 -0.05112,0.212346 -0.04719,0.09831 -0.133699,0.173023 -0.08651,0.07078 -0.204481,0.114037 -0.114038,0.04326 -0.247737,0.04326 -0.137632,0 -0.255602,-0.04326 -0.114038,-0.04326 -0.204481,-0.114037 -0.08651,-0.07471 -0.137632,-0.173023 -0.04719,-0.09831 -0.04719,-0.212346 z"
             style="font-style:normal;font-variant:normal;font-weight:normal;font-stretch:normal;font-family:'Berkshire Swash';-inkscape-font-specification:'Berkshire Swash'"
             id="path858" /><path
             d="m 53.11386,-32.625206 q 0,-0.04326 0,-0.173022 0,-0.1337 -0.0079,-0.30279 -0.0079,-0.173023 -0.02753,-0.365707 -0.01966,-0.192684 -0.06292,-0.357843 -0.09438,-0.121902 -0.212347,-0.216278 -0.114037,-0.09831 -0.294925,-0.09831 -0.306722,0 -0.452218,0.401098 -0.141564,0.401098 -0.141564,1.242617 0,0.36964 0.03146,0.676362 0.03539,0.306722 0.10224,0.526933 0.07078,0.22021 0.176955,0.342113 0.110106,0.121902 0.259534,0.121902 0.629174,0 0.629174,-1.797077 z m -0.04719,-1.730227 q -0.07471,-0.393233 -0.208414,-0.731414 -0.133699,-0.342113 -0.322451,-0.58985 -0.18482,-0.247737 -0.424692,-0.389301 -0.23594,-0.141564 -0.511204,-0.141564 -0.157293,0 -0.28706,0.03932 -0.125835,0.03932 -0.220211,0.09438 -0.09438,0.05112 -0.157293,0.102241 -0.05898,0.04719 -0.08651,0.07078 l -0.10224,-0.137632 q 0.09438,-0.121902 0.228075,-0.228075 0.137632,-0.106173 0.298858,-0.180887 0.161225,-0.07471 0.33818,-0.11797 0.180888,-0.04326 0.357843,-0.04326 0.581985,0 1.022407,0.255602 0.440421,0.251669 0.735346,0.715684 0.294925,0.464016 0.444354,1.120716 0.149428,0.656699 0.149428,1.458896 0,0.648835 -0.133699,1.140376 -0.129767,0.491542 -0.373572,0.825791 -0.243804,0.330316 -0.593782,0.499406 -0.346046,0.165158 -0.782535,0.165158 -0.302789,0 -0.617376,-0.106173 -0.310654,-0.110105 -0.566256,-0.35391 -0.251669,-0.243805 -0.412895,-0.637038 -0.161226,-0.397166 -0.161226,-0.971287 0,-0.495474 0.137632,-0.880842 0.141564,-0.385369 0.377504,-0.648836 0.23594,-0.267398 0.546594,-0.40503 0.310655,-0.141564 0.6567,-0.141564 0.133699,0 0.239872,0.02359 0.106173,0.01966 0.18482,0.05112 0.07865,0.03146 0.137632,0.07078 0.05898,0.03539 0.106173,0.07078 z"
             style="font-style:normal;font-variant:normal;font-weight:normal;font-stretch:normal;font-family:'Berkshire Swash';-inkscape-font-specification:'Berkshire Swash'"
             id="path860" /><path
             d="m 56.086704,-32.29489 q 0,0.125835 0.03539,0.275264 0.03932,0.145496 0.110105,0.294925 0.07078,0.149429 0.173023,0.28706 0.106173,0.1337 0.239872,0.239873 0.137632,0.106173 0.30279,0.16909 0.165158,0.06292 0.361775,0.06292 0.137631,0 0.255601,-0.03146 0.11797,-0.03146 0.220211,-0.08651 0.102241,-0.05505 0.196617,-0.125834 0.09438,-0.07471 0.188752,-0.157294 l 0.09831,0.09438 q -0.09044,0.121903 -0.232008,0.267399 -0.141564,0.145496 -0.342113,0.275263 -0.200549,0.125835 -0.467947,0.212346 -0.267399,0.08258 -0.609512,0.08258 -0.342113,0 -0.668497,-0.121902 -0.322451,-0.125835 -0.574121,-0.373572 -0.251669,-0.247737 -0.40503,-0.617376 -0.149429,-0.36964 -0.149429,-0.865114 0,-0.357842 0.09044,-0.656699 0.09044,-0.298858 0.243805,-0.53873 0.157293,-0.239873 0.361774,-0.42076 0.208414,-0.180887 0.436489,-0.298857 0.228076,-0.121903 0.464016,-0.180888 0.239872,-0.06292 0.460083,-0.06292 0.290993,0 0.507271,0.06292 0.216278,0.06292 0.357842,0.169091 0.145497,0.106173 0.216279,0.247737 0.07078,0.137631 0.07078,0.290992 0,0.18482 -0.106173,0.334249 -0.106173,0.145496 -0.283128,0.255602 z m 0.790399,-0.798263 q 0.05112,-0.03146 0.08258,-0.05898 0.03539,-0.03146 0.05505,-0.07078 0.01966,-0.04326 0.02753,-0.102241 0.0118,-0.06292 0.0118,-0.153361 0,-0.09831 -0.02359,-0.216278 -0.01966,-0.121903 -0.07078,-0.228076 -0.05112,-0.106173 -0.129767,-0.176955 -0.07865,-0.07078 -0.188752,-0.07078 -0.141564,0 -0.243805,0.08651 -0.09831,0.08258 -0.165158,0.216279 -0.06292,0.133699 -0.102241,0.306722 -0.03539,0.16909 -0.05505,0.342113 -0.01966,0.173023 -0.02359,0.334248 -0.0039,0.157294 -0.0039,0.267399 z"
             style="font-style:normal;font-variant:normal;font-weight:normal;font-stretch:normal;font-family:'Berkshire Swash';-inkscape-font-specification:'Berkshire Swash'"
             id="path862" /><path
             d="m 60.506647,-33.832432 q -0.02359,-0.157294 -0.07865,-0.243805 -0.05112,-0.08651 -0.176955,-0.08651 -0.06685,0 -0.11797,0.02359 -0.04719,0.02359 -0.102241,0.06685 l -0.07865,-0.09831 q 0.09044,-0.07471 0.200549,-0.145496 0.114038,-0.07472 0.243805,-0.129767 0.129767,-0.05505 0.279196,-0.09044 0.149429,-0.03539 0.314587,-0.03539 0.23594,0 0.381436,0.08258 0.145496,0.07865 0.228075,0.200549 0.08651,0.11797 0.121903,0.255602 0.03539,0.137631 0.05112,0.247737 0.145496,1.191497 0.326384,1.804941 0.180887,0.613444 0.428624,0.613444 0.137632,0 0.263467,-0.149428 0.129767,-0.149429 0.224143,-0.408963 0.09831,-0.259534 0.157293,-0.60558 0.05898,-0.346045 0.05898,-0.739278 0,-0.259534 -0.03539,-0.436489 -0.03539,-0.180888 -0.07865,-0.30279 -0.04326,-0.121903 -0.07865,-0.200549 -0.03539,-0.08258 -0.03539,-0.145497 0,-0.05898 0.04719,-0.09831 0.04719,-0.03932 0.110105,-0.06685 0.06685,-0.02753 0.133699,-0.03932 0.07078,-0.0118 0.114038,-0.0118 0.114038,0 0.165158,0.03146 0.05112,0.03146 0.08258,0.121902 0.03539,0.114038 0.04719,0.30279 0.01573,0.184819 0.01573,0.397165 0,0.30279 -0.04326,0.664565 -0.03932,0.361775 -0.125835,0.727482 -0.08258,0.365707 -0.212346,0.70782 -0.129767,0.342113 -0.310654,0.609512 -0.176955,0.263466 -0.405031,0.424692 -0.224143,0.157293 -0.503339,0.157293 -0.326383,0 -0.566256,-0.188752 -0.239872,-0.188752 -0.408962,-0.491542 -0.165158,-0.302789 -0.275264,-0.680293 -0.110105,-0.377505 -0.180887,-0.755009 -0.06685,-0.381436 -0.110105,-0.719617 -0.03932,-0.342113 -0.07078,-0.570188 z"
             style="font-style:normal;font-variant:normal;font-weight:normal;font-stretch:normal;font-family:'Berkshire Swash';-inkscape-font-specification:'Berkshire Swash'"
             id="path864" /><path
             d="m 66.145614,-32.526897 q 0,-0.09831 -0.06292,-0.149429 -0.06292,-0.05112 -0.161225,-0.05112 -0.137632,0 -0.263467,0.06292 -0.121902,0.06292 -0.216278,0.18482 -0.09438,0.121902 -0.149429,0.302789 -0.05505,0.176955 -0.05505,0.412896 0,0.228075 0.03146,0.377504 0.03539,0.149428 0.09044,0.239872 0.05899,0.08651 0.133699,0.121902 0.07471,0.03539 0.157293,0.03539 0.102241,0 0.192685,-0.05112 0.09044,-0.05505 0.157293,-0.137632 0.06685,-0.08258 0.106173,-0.184819 0.03932,-0.102241 0.03932,-0.204482 z m -0.625242,-1.722363 q -0.133699,0 -0.247737,0.03146 -0.114037,0.03146 -0.196616,0.07865 -0.08258,0.04719 -0.129767,0.106173 -0.04719,0.05505 -0.04719,0.106173 0,0.05898 0.05899,0.08651 0.06292,0.02359 0.137631,0.05898 0.07471,0.03146 0.1337,0.09438 0.06292,0.05898 0.06292,0.18482 0,0.08258 -0.03539,0.153361 -0.03146,0.06685 -0.09044,0.121902 -0.05505,0.05112 -0.133699,0.08258 -0.07471,0.02753 -0.157293,0.02753 -0.220211,0 -0.357843,-0.149429 -0.133699,-0.149429 -0.133699,-0.397166 0,-0.239872 0.125835,-0.408963 0.125834,-0.173022 0.326383,-0.283128 0.204482,-0.110105 0.460083,-0.161225 0.255602,-0.05505 0.511204,-0.05505 0.306722,0 0.585918,0.06685 0.279195,0.06685 0.491541,0.212346 0.216279,0.145496 0.342113,0.369639 0.129767,0.224143 0.129767,0.542662 v 2.221769 q 0,0.03539 0.0039,0.07865 0.0039,0.04325 0.01966,0.07865 0.01573,0.03539 0.04719,0.05898 0.03146,0.02359 0.09044,0.02359 0.07078,0 0.129767,-0.05112 0.06292,-0.05505 0.110105,-0.110105 l 0.09831,0.08258 q -0.05898,0.08258 -0.141564,0.180887 -0.08258,0.09831 -0.200549,0.18482 -0.11797,0.08651 -0.275264,0.145496 -0.157293,0.05898 -0.357842,0.05898 -0.247737,0 -0.440421,-0.145496 -0.192685,-0.149429 -0.25167,-0.456151 -0.125834,0.16909 -0.263466,0.283128 -0.1337,0.114038 -0.275264,0.18482 -0.141564,0.07078 -0.28706,0.10224 -0.141564,0.03146 -0.28706,0.03146 -0.188752,0 -0.365707,-0.05898 -0.176955,-0.05898 -0.318519,-0.18482 -0.137632,-0.129767 -0.224143,-0.334248 -0.08258,-0.204481 -0.08258,-0.499406 0,-0.357843 0.141564,-0.585918 0.141564,-0.228076 0.369639,-0.381437 0.232008,-0.157293 0.523,-0.267398 0.294925,-0.110106 0.601647,-0.232008 0.228076,-0.09044 0.330317,-0.267399 0.106173,-0.180887 0.106173,-0.369639 0,-0.290993 -0.173023,-0.464016 -0.169091,-0.176955 -0.464016,-0.176955 z"
             style="font-style:normal;font-variant:normal;font-weight:normal;font-stretch:normal;font-family:'Berkshire Swash';-inkscape-font-specification:'Berkshire Swash'"
             id="path866" /><path
             d="m 69.602137,-30.835994 q 0,0.05112 -0.01966,0.121903 -0.01573,0.07078 -0.08258,0.133699 -0.06292,0.06292 -0.188752,0.106173 -0.121902,0.04719 -0.330316,0.04719 -0.208414,0 -0.326384,-0.05112 -0.11797,-0.04719 -0.176955,-0.114038 -0.05505,-0.06685 -0.07078,-0.137632 -0.0118,-0.07078 -0.0118,-0.114037 v -5.072711 q 0,-0.114038 -0.05505,-0.196617 -0.05112,-0.08651 -0.176955,-0.08651 -0.06685,0 -0.11797,0.02359 -0.04719,0.01966 -0.102241,0.06292 l -0.07865,-0.09438 q 0.09044,-0.07471 0.200549,-0.145496 0.110106,-0.07472 0.239873,-0.129767 0.133699,-0.05505 0.283128,-0.09044 0.149428,-0.03539 0.314587,-0.03539 0.255601,0 0.397165,0.07078 0.141564,0.06685 0.208414,0.16909 0.06685,0.09831 0.07865,0.212346 0.01573,0.110106 0.01573,0.196617 z"
             style="font-style:normal;font-variant:normal;font-weight:normal;font-stretch:normal;font-family:'Berkshire Swash';-inkscape-font-specification:'Berkshire Swash'"
             id="path868" /><path
             d="m 74.029945,-31.174174 q 0,0.03539 0.0039,0.07865 0.0039,0.03932 0.01966,0.07865 0.01573,0.03539 0.04719,0.05898 0.03146,0.02359 0.09044,0.02359 0.07471,0 0.133699,-0.05112 0.05898,-0.05505 0.110106,-0.110106 l 0.09438,0.08258 q -0.05899,0.08258 -0.149429,0.18482 -0.08651,0.09831 -0.212346,0.188752 -0.125835,0.09044 -0.287061,0.149429 -0.161225,0.06292 -0.365707,0.06292 -0.173022,0 -0.302789,-0.04719 -0.125835,-0.04326 -0.216279,-0.11797 -0.08651,-0.07865 -0.129767,-0.180887 -0.04325,-0.106173 -0.04325,-0.224143 v -0.176955 q -0.196617,0.212346 -0.412896,0.373571 -0.09438,0.07078 -0.200549,0.137632 -0.106173,0.06685 -0.22021,0.121902 -0.114038,0.05112 -0.23594,0.08258 -0.121903,0.03146 -0.243805,0.03146 -0.23594,0 -0.40503,-0.08258 -0.165158,-0.08651 -0.267399,-0.224143 -0.102241,-0.137632 -0.149429,-0.310654 -0.04719,-0.173023 -0.04719,-0.346046 v -2.434115 q 0,-0.03539 -0.0039,-0.07471 -0.0039,-0.04326 -0.01966,-0.07865 -0.01573,-0.03932 -0.04719,-0.06292 -0.03146,-0.02359 -0.09044,-0.02359 -0.07078,0 -0.133699,0.05505 -0.05899,0.05112 -0.106173,0.106173 l -0.09831,-0.08258 q 0.05899,-0.08258 0.145496,-0.180888 0.09044,-0.10224 0.216278,-0.192684 0.125835,-0.09044 0.287061,-0.149429 0.165158,-0.06292 0.365707,-0.06292 0.173023,0 0.30279,0.04719 0.129767,0.04326 0.216278,0.121902 0.08651,0.07472 0.129767,0.180888 0.04326,0.10224 0.04326,0.22021 v 2.6268 q 0,0.05505 0.01573,0.114037 0.01966,0.05505 0.05112,0.102241 0.03539,0.04719 0.08651,0.07865 0.05112,0.02753 0.121902,0.02753 0.114038,0 0.228075,-0.05898 0.114038,-0.05898 0.208414,-0.137632 0.09438,-0.08258 0.161226,-0.161225 0.07078,-0.07865 0.102241,-0.11797 v -2.296484 q 0,-0.03539 -0.0039,-0.07471 -0.0039,-0.04326 -0.01966,-0.07865 -0.01573,-0.03932 -0.04719,-0.06292 -0.03146,-0.02359 -0.09044,-0.02359 -0.07078,0 -0.133699,0.05505 -0.05899,0.05112 -0.106174,0.106173 l -0.09831,-0.08258 q 0.05898,-0.08258 0.145497,-0.180888 0.09044,-0.10224 0.216278,-0.192684 0.125835,-0.09044 0.28706,-0.149429 0.165158,-0.06292 0.365707,-0.06292 0.173023,0 0.30279,0.04719 0.129767,0.04326 0.216278,0.121902 0.08651,0.07472 0.129767,0.180888 0.04326,0.10224 0.04326,0.22021 z"
             style="font-style:normal;font-variant:normal;font-weight:normal;font-stretch:normal;font-family:'Berkshire Swash';-inkscape-font-specification:'Berkshire Swash'"
             id="path870" /><path
             d="m 76.078689,-32.29489 q 0,0.125835 0.03539,0.275264 0.03932,0.145496 0.110105,0.294925 0.07078,0.149429 0.173023,0.28706 0.106173,0.1337 0.239872,0.239873 0.137632,0.106173 0.30279,0.16909 0.165158,0.06292 0.361775,0.06292 0.137632,0 0.255602,-0.03146 0.11797,-0.03146 0.22021,-0.08651 0.102241,-0.05505 0.196617,-0.125834 0.09438,-0.07471 0.188752,-0.157294 l 0.09831,0.09438 q -0.09044,0.121903 -0.232007,0.267399 -0.141564,0.145496 -0.342113,0.275263 -0.200549,0.125835 -0.467948,0.212346 -0.267399,0.08258 -0.609512,0.08258 -0.342113,0 -0.668497,-0.121902 -0.322451,-0.125835 -0.57412,-0.373572 -0.25167,-0.247737 -0.405031,-0.617376 -0.149428,-0.36964 -0.149428,-0.865114 0,-0.357842 0.09044,-0.656699 0.09044,-0.298858 0.243805,-0.53873 0.157293,-0.239873 0.361775,-0.42076 0.208413,-0.180887 0.436489,-0.298857 0.228075,-0.121903 0.464015,-0.180888 0.239872,-0.06292 0.460083,-0.06292 0.290993,0 0.507271,0.06292 0.216279,0.06292 0.357843,0.169091 0.145496,0.106173 0.216278,0.247737 0.07078,0.137631 0.07078,0.290992 0,0.18482 -0.106173,0.334249 -0.106173,0.145496 -0.283128,0.255602 z m 0.790399,-0.798263 q 0.05112,-0.03146 0.08258,-0.05898 0.03539,-0.03146 0.05505,-0.07078 0.01966,-0.04326 0.02753,-0.102241 0.0118,-0.06292 0.0118,-0.153361 0,-0.09831 -0.02359,-0.216278 -0.01966,-0.121903 -0.07078,-0.228076 -0.05112,-0.106173 -0.129767,-0.176955 -0.07865,-0.07078 -0.188752,-0.07078 -0.141564,0 -0.243805,0.08651 -0.09831,0.08258 -0.165158,0.216279 -0.06292,0.133699 -0.10224,0.306722 -0.03539,0.16909 -0.05505,0.342113 -0.01966,0.173023 -0.02359,0.334248 -0.0039,0.157294 -0.0039,0.267399 z"
             style="font-style:normal;font-variant:normal;font-weight:normal;font-stretch:normal;font-family:'Berkshire Swash';-inkscape-font-specification:'Berkshire Swash'"
             id="path872" /></g></g><path
         d="m 621.371,703.789 c 78.008,0 141.25,-63.238 141.25,-141.25 0,-77.969 -63.242,-141.207 -141.25,-141.207 -48.91,0 -91.992,24.84 -117.351,62.617 v 313.16 c 15.71,-1.019 28.25,-14.14 28.25,-30.078 V 672.07 c 24.289,19.809 55.312,31.719 89.101,31.719 z m 0,-57.809 c 46.09,0 83.43,-37.351 83.43,-83.441 0,-46.059 -37.34,-83.437 -83.43,-83.437 -46.062,0 -83.402,37.378 -83.402,83.437 0,46.09 37.34,83.441 83.402,83.441 z"
         style="fill:#f47421;fill-opacity:1;fill-rule:evenodd;stroke:none"
         id="path855"
         inkscape:export-filename="/home/mitesh/path845.png"
         inkscape:export-xdpi="96"
         inkscape:export-ydpi="96" /><path
         d="m 773.551,799.488 c 16.57,0 30.121,-13.547 30.121,-30.109 v -55.16 h 29.297 c 16.562,0 30.121,-13.559 30.121,-30.117 0,-16.563 -13.559,-30.122 -30.121,-30.122 H 803.672 V 465.27 c 0,-16.559 -13.551,-30.11 -30.121,-30.11 -16.563,0 -30.11,13.551 -30.11,30.11 V 653.98 H 728.98 c -12.261,14.461 -27.421,26.411 -44.57,34.969 2.352,14.289 14.809,25.27 29.731,25.27 h 29.3 v 55.16 c 0,16.562 13.547,30.109 30.11,30.109 z"
         style="fill:#003865;fill-opacity:1;fill-rule:evenodd;stroke:none"
         id="path857"
         inkscape:export-filename="/home/mitesh/path845.png"
         inkscape:export-xdpi="96"
         inkscape:export-ydpi="96" /><path
         d="m 386.68,703.789 c -77.969,0 -141.211,-63.238 -141.211,-141.25 0,-77.969 63.242,-141.207 141.211,-141.207 48.91,0 91.992,24.84 117.34,62.617 v 313.16 c -15.661,-1.019 -28.2,-14.14 -28.2,-30.078 V 672.07 c -24.3,19.809 -55.351,31.719 -89.14,31.719 z m 0,-57.809 c -46.059,0 -83.442,-37.351 -83.442,-83.441 0,-46.059 37.383,-83.437 83.442,-83.437 46.09,0 83.441,37.378 83.441,83.437 0,46.09 -37.351,83.441 -83.441,83.441 z"
         style="fill:#003865;fill-opacity:1;fill-rule:evenodd;stroke:none"
         id="path859"
         inkscape:export-filename="/home/mitesh/path845.png"
         inkscape:export-xdpi="96"
         inkscape:export-ydpi="96" /></g></g></svg>
